# Blender v2.81 (sub 16) OBJ File: ''
# www.blender.org
mtllib Nail.mtl
o Nail_Cylinder
v 0.000000 6.541711 -1.000000
v 0.195090 6.541711 -0.980785
v 0.382683 6.541711 -0.923880
v 0.555570 6.541711 -0.831470
v 0.707107 6.541711 -0.707107
v 0.831470 6.541711 -0.555570
v 0.923880 6.541711 -0.382683
v 0.980785 6.541711 -0.195090
v 1.000000 6.541711 -0.000000
v 0.980785 6.541711 0.195090
v 0.923880 6.541711 0.382683
v 0.831470 6.541711 0.555570
v 0.707107 6.541711 0.707107
v 0.555570 6.541711 0.831470
v 0.382683 6.541711 0.923880
v 0.195090 6.541711 0.980785
v -0.000000 6.541711 1.000000
v -0.195091 6.541711 0.980785
v -0.382684 6.541711 0.923879
v -0.555571 6.541711 0.831469
v -0.707107 6.541711 0.707106
v -0.831470 6.541711 0.555570
v -0.923880 6.541711 0.382683
v -0.980785 6.541711 0.195089
v -1.000000 6.541711 -0.000001
v -0.980785 6.541711 -0.195091
v -0.923879 6.541711 -0.382684
v -0.831469 6.541711 -0.555571
v -0.707106 6.541711 -0.707108
v -0.555569 6.541711 -0.831470
v -0.382682 6.541711 -0.923880
v 0.180350 6.460772 -0.000000
v -0.195089 6.541711 -0.980786
v 0.000000 6.460772 -0.180350
v 0.035185 6.460772 -0.176884
v 0.069017 6.460772 -0.166621
v 0.100197 6.460772 -0.149955
v 0.127526 6.460772 -0.127527
v 0.149955 6.460772 -0.100197
v 0.166621 6.460772 -0.069017
v 0.176884 6.460772 -0.035185
v 0.069017 6.460772 0.166621
v 0.176884 6.460772 0.035184
v 0.166621 6.460772 0.069016
v 0.149955 6.460772 0.100197
v 0.127526 6.460772 0.127526
v 0.100197 6.460772 0.149955
v -0.176884 6.460772 -0.035185
v 0.035184 6.460772 0.176884
v 0.000000 6.460772 0.180349
v -0.035184 6.460772 0.176884
v -0.069017 6.460772 0.166621
v -0.100197 6.460772 0.149955
v -0.127526 6.460772 0.127526
v -0.149955 6.460772 0.100196
v -0.166621 6.460772 0.069016
v -0.176884 6.460772 0.035184
v -0.180349 6.460772 -0.000000
v -0.166621 6.460772 -0.069017
v -0.149955 6.460772 -0.100197
v -0.127526 6.460772 -0.127527
v -0.100196 6.460772 -0.149955
v -0.069016 6.460772 -0.166622
v -0.035184 6.460772 -0.176884
v 0.000000 6.582257 -1.000000
v 0.195090 6.582257 -0.980785
v 0.382683 6.582257 -0.923880
v 0.555570 6.582257 -0.831470
v 0.707107 6.582257 -0.707107
v 0.831470 6.582257 -0.555570
v 0.923880 6.582257 -0.382683
v 0.980785 6.582257 -0.195090
v 1.000000 6.582257 -0.000000
v 0.980785 6.582257 0.195090
v 0.923880 6.582257 0.382683
v 0.831470 6.582257 0.555570
v 0.707107 6.582257 0.707107
v 0.555570 6.582257 0.831470
v 0.382683 6.582257 0.923880
v 0.195090 6.582257 0.980785
v -0.000000 6.582257 1.000000
v -0.195091 6.582257 0.980785
v -0.382684 6.582257 0.923879
v -0.555571 6.582257 0.831469
v -0.707107 6.582257 0.707106
v -0.831470 6.582257 0.555570
v -0.923880 6.582257 0.382683
v -0.980785 6.582257 0.195089
v -1.000000 6.582257 -0.000001
v -0.980785 6.582257 -0.195091
v -0.923879 6.582257 -0.382684
v -0.831469 6.582257 -0.555571
v -0.707106 6.582257 -0.707108
v -0.555569 6.582257 -0.831470
v -0.382682 6.582257 -0.923880
v -0.195089 6.582257 -0.980786
v 0.000000 0.326499 -0.180350
v 0.180350 0.326499 -0.000000
v 0.000000 0.326499 0.180349
v -0.180349 0.326499 -0.000000
v 0.000000 0.000278 -0.000000
v -0.127526 0.326499 -0.127527
v 0.035185 0.326499 -0.176884
v 0.069017 0.326499 -0.166621
v 0.100197 0.326499 -0.149955
v 0.127526 0.326499 -0.127527
v 0.149955 0.326499 -0.100197
v 0.166621 0.326499 -0.069017
v 0.176884 0.326499 -0.035185
v 0.069017 0.326499 0.166621
v 0.176884 0.326499 0.035184
v 0.166621 0.326499 0.069016
v 0.149955 0.326499 0.100197
v 0.127526 0.326499 0.127526
v 0.100197 0.326499 0.149955
v -0.176884 0.326499 -0.035185
v 0.035184 0.326499 0.176884
v -0.035184 0.326499 0.176884
v -0.069017 0.326499 0.166621
v -0.100197 0.326499 0.149955
v -0.127526 0.326499 0.127526
v -0.149955 0.326499 0.100196
v -0.166621 0.326499 0.069016
v -0.176884 0.326499 0.035184
v -0.166621 0.326499 -0.069017
v -0.149955 0.326499 -0.100197
v -0.100196 0.326499 -0.149955
v -0.069016 0.326499 -0.166622
v -0.035184 0.326499 -0.176884
vt 0.843750 1.000000
vt 0.875000 1.000000
vt 0.875000 1.000000
vt 0.843750 1.000000
vt 0.562500 1.000000
vt 0.593750 1.000000
vt 0.593750 1.000000
vt 0.562500 1.000000
vt 0.281250 1.000000
vt 0.312500 1.000000
vt 0.312500 1.000000
vt 0.281250 1.000000
vt 0.968750 1.000000
vt 1.000000 1.000000
vt 1.000000 1.000000
vt 0.968750 1.000000
vt 0.000000 1.000000
vt 0.031250 1.000000
vt 0.031250 1.000000
vt 0.000000 1.000000
vt 0.687500 1.000000
vt 0.718750 1.000000
vt 0.718750 1.000000
vt 0.687500 1.000000
vt 0.406250 1.000000
vt 0.437500 1.000000
vt 0.437500 1.000000
vt 0.406250 1.000000
vt 0.125000 1.000000
vt 0.156250 1.000000
vt 0.156250 1.000000
vt 0.125000 1.000000
vt 0.812500 1.000000
vt 0.812500 1.000000
vt 0.531250 1.000000
vt 0.531250 1.000000
vt 0.250000 1.000000
vt 0.250000 1.000000
vt 0.937500 1.000000
vt 0.937500 1.000000
vt 0.656250 1.000000
vt 0.656250 1.000000
vt 0.375000 1.000000
vt 0.375000 1.000000
vt 0.093750 1.000000
vt 0.093750 1.000000
vt 0.781250 1.000000
vt 0.781250 1.000000
vt 0.500000 1.000000
vt 0.500000 1.000000
vt 0.218750 1.000000
vt 0.218750 1.000000
vt 0.906250 1.000000
vt 0.906250 1.000000
vt 0.625000 1.000000
vt 0.625000 1.000000
vt 0.343750 1.000000
vt 0.343750 1.000000
vt 0.062500 1.000000
vt 0.062500 1.000000
vt 0.750000 1.000000
vt 0.750000 1.000000
vt 0.468750 1.000000
vt 0.468750 1.000000
vt 0.187500 1.000000
vt 0.187500 1.000000
vt 0.562500 1.000000
vt 0.593750 1.000000
vt 0.343750 1.000000
vt 0.375000 1.000000
vt 0.968750 1.000000
vt 1.000000 1.000000
vt 0.125000 1.000000
vt 0.156250 1.000000
vt 0.750000 1.000000
vt 0.781250 1.000000
vt 0.531250 1.000000
vt 0.312500 1.000000
vt 0.937500 1.000000
vt 0.093750 1.000000
vt 0.718750 1.000000
vt 0.500000 1.000000
vt 0.281250 1.000000
vt 0.906250 1.000000
vt 0.062500 1.000000
vt 0.687500 1.000000
vt 0.468750 1.000000
vt 0.250000 1.000000
vt 0.875000 1.000000
vt 0.031250 1.000000
vt 0.656250 1.000000
vt 0.437500 1.000000
vt 0.218750 1.000000
vt 0.843750 1.000000
vt 0.000000 1.000000
vt 0.625000 1.000000
vt 0.406250 1.000000
vt 0.187500 1.000000
vt 0.812500 1.000000
vt 0.312500 1.000000
vt 0.281250 1.000000
vt 0.843750 1.000000
vt 0.812500 1.000000
vt 0.250000 1.000000
vt 0.781250 1.000000
vt 0.187500 1.000000
vt 0.156250 1.000000
vt 0.718750 1.000000
vt 0.687500 1.000000
vt 0.750000 1.000000
vt 0.125000 1.000000
vt 0.656250 1.000000
vt 0.093750 1.000000
vt 0.625000 1.000000
vt 0.218750 1.000000
vt 0.062500 1.000000
vt 0.593750 1.000000
vt 0.031250 1.000000
vt 0.531250 1.000000
vt 0.500000 1.000000
vt 0.000000 1.000000
vt 0.468750 1.000000
vt 0.562500 1.000000
vt 0.437500 1.000000
vt 1.000000 1.000000
vt 0.968750 1.000000
vt 0.406250 1.000000
vt 0.937500 1.000000
vt 0.375000 1.000000
vt 0.906250 1.000000
vt 0.343750 1.000000
vt 0.875000 1.000000
vt 0.000000 0.000000
vt 0.000000 0.000000
vt 0.000000 0.000000
vt 0.000000 0.000000
vt 0.000000 0.000000
vt 0.000000 0.000000
vt 0.000000 0.000000
vt 0.000000 0.000000
vt 0.000000 0.000000
vt 0.000000 0.000000
vt 0.000000 0.000000
vt 0.000000 0.000000
vt 0.000000 0.000000
vt 0.000000 0.000000
vt 0.000000 0.000000
vt 0.000000 0.000000
vt 0.000000 0.000000
vt 0.000000 0.000000
vt 0.000000 0.000000
vt 0.000000 0.000000
vt 0.000000 0.000000
vt 0.000000 0.000000
vt 0.000000 0.000000
vt 0.000000 0.000000
vt 0.000000 0.000000
vt 0.000000 0.000000
vt 0.000000 0.000000
vt 0.000000 0.000000
vt 0.000000 0.000000
vt 0.000000 0.000000
vt 0.000000 0.000000
vt 0.000000 0.000000
vt 0.000000 0.000000
vn -0.0763 0.9951 0.0626
vn -0.0465 0.9951 -0.0871
vn 0.0945 0.9951 -0.0287
vn -0.0097 0.9951 0.0983
vn 0.0097 0.9951 0.0983
vn -0.0945 0.9951 -0.0287
vn 0.0465 0.9951 -0.0871
vn 0.0763 0.9951 0.0626
vn -0.0871 0.9951 0.0465
vn -0.0287 0.9951 -0.0945
vn 0.0983 0.9951 -0.0097
vn -0.0287 0.9951 0.0945
vn -0.0871 0.9951 -0.0465
vn 0.0626 0.9951 -0.0763
vn 0.0626 0.9951 0.0763
vn -0.0945 0.9951 0.0287
vn -0.0097 0.9951 -0.0983
vn 0.0983 0.9951 0.0097
vn -0.0465 0.9951 0.0871
vn -0.0763 0.9951 -0.0626
vn 0.0763 0.9951 -0.0626
vn 0.0465 0.9951 0.0871
vn -0.0983 0.9951 0.0097
vn 0.0097 0.9951 -0.0983
vn 0.0945 0.9951 0.0287
vn -0.0626 0.9951 0.0763
vn -0.0626 0.9951 -0.0763
vn 0.0871 0.9951 -0.0465
vn 0.0287 0.9951 0.0945
vn -0.0983 0.9951 -0.0097
vn 0.0287 0.9951 -0.0945
vn 0.0871 0.9951 0.0465
vn -0.4714 0.0000 -0.8819
vn 0.7730 0.0000 -0.6344
vn -0.0980 0.0000 0.9952
vn 0.7730 0.0000 0.6344
vn -0.9952 0.0000 0.0980
vn -0.2903 0.0000 -0.9569
vn 0.8819 0.0000 -0.4714
vn -0.2903 0.0000 0.9569
vn 0.6344 0.0000 0.7730
vn -0.9952 0.0000 -0.0980
vn -0.0980 0.0000 -0.9952
vn 0.9569 0.0000 -0.2903
vn -0.4714 0.0000 0.8819
vn 0.4714 0.0000 0.8819
vn -0.9569 0.0000 -0.2903
vn 0.0980 0.0000 -0.9952
vn 0.9952 0.0000 -0.0980
vn -0.6344 0.0000 0.7730
vn 0.2903 0.0000 0.9569
vn -0.8819 0.0000 -0.4714
vn 0.2903 0.0000 -0.9569
vn 0.9952 0.0000 0.0980
vn -0.7730 0.0000 0.6344
vn 0.0980 0.0000 0.9952
vn -0.7730 0.0000 -0.6344
vn 0.4714 0.0000 -0.8819
vn 0.9569 0.0000 0.2903
vn -0.8819 0.0000 0.4714
vn -0.6344 0.0000 -0.7730
vn 0.6344 0.0000 -0.7730
vn 0.8819 0.0000 0.4714
vn -0.9569 0.0000 0.2903
vn 0.0000 -1.0000 0.0000
vn 0.7277 -0.4838 0.4862
vn 0.8583 -0.4838 0.1707
vn 0.1707 -0.4838 0.8583
vn 0.4862 -0.4838 0.7277
vn 0.4862 -0.4838 -0.7277
vn 0.1707 -0.4838 -0.8583
vn 0.8583 -0.4838 -0.1707
vn 0.7277 -0.4838 -0.4862
vn -0.1707 -0.4838 0.8583
vn -0.8583 -0.4838 -0.1707
vn -0.7277 -0.4838 -0.4862
vn -0.4862 -0.4838 -0.7277
vn -0.1707 -0.4838 -0.8583
vn -0.4862 -0.4838 0.7277
vn -0.7277 -0.4838 0.4862
vn -0.8583 -0.4838 0.1707
usemtl Material.001
s off
f 6/1/1 5/2/1 38/3/1 39/4/1
f 15/5/2 14/6/2 47/7/2 42/8/2
f 24/9/3 23/10/3 56/11/3 57/12/3
f 2/13/4 1/14/4 34/15/4 35/16/4
f 1/17/5 33/18/5 64/19/5 34/20/5
f 11/21/6 10/22/6 43/23/6 44/24/6
f 20/25/7 19/26/7 52/27/7 53/28/7
f 29/29/8 28/30/8 60/31/8 61/32/8
f 7/33/9 6/1/9 39/4/9 40/34/9
f 16/35/10 15/5/10 42/8/10 49/36/10
f 25/37/11 24/9/11 57/12/11 58/38/11
f 3/39/12 2/13/12 35/16/12 36/40/12
f 12/41/13 11/21/13 44/24/13 45/42/13
f 21/43/14 20/25/14 53/28/14 54/44/14
f 30/45/15 29/29/15 61/32/15 62/46/15
f 8/47/16 7/33/16 40/34/16 41/48/16
f 17/49/17 16/35/17 49/36/17 50/50/17
f 26/51/18 25/37/18 58/38/18 48/52/18
f 4/53/19 3/39/19 36/40/19 37/54/19
f 13/55/20 12/41/20 45/42/20 46/56/20
f 22/57/21 21/43/21 54/44/21 55/58/21
f 31/59/22 30/45/22 62/46/22 63/60/22
f 9/61/23 8/47/23 41/48/23 32/62/23
f 18/63/24 17/49/24 50/50/24 51/64/24
f 27/65/25 26/51/25 48/52/25 59/66/25
f 5/2/26 4/53/26 37/54/26 38/3/26
f 14/6/27 13/55/27 46/56/27 47/7/27
f 23/10/28 22/57/28 55/58/28 56/11/28
f 33/18/29 31/59/29 63/60/29 64/19/29
f 10/22/30 9/61/30 32/62/30 43/23/30
f 19/26/31 18/63/31 51/64/31 52/27/31
f 28/30/32 27/65/32 59/66/32 60/31/32
f 14/6/33 15/5/33 79/67/33 78/68/33
f 21/43/34 22/57/34 86/69/34 85/70/34
f 1/14/35 2/13/35 66/71/35 65/72/35
f 28/30/36 29/29/36 93/73/36 92/74/36
f 8/47/37 9/61/37 73/75/37 72/76/37
f 15/5/38 16/35/38 80/77/38 79/67/38
f 22/57/39 23/10/39 87/78/39 86/69/39
f 2/13/40 3/39/40 67/79/40 66/71/40
f 29/29/41 30/45/41 94/80/41 93/73/41
f 9/61/42 10/22/42 74/81/42 73/75/42
f 16/35/43 17/49/43 81/82/43 80/77/43
f 23/10/44 24/9/44 88/83/44 87/78/44
f 3/39/45 4/53/45 68/84/45 67/79/45
f 30/45/46 31/59/46 95/85/46 94/80/46
f 10/22/47 11/21/47 75/86/47 74/81/47
f 17/49/48 18/63/48 82/87/48 81/82/48
f 24/9/49 25/37/49 89/88/49 88/83/49
f 4/53/50 5/2/50 69/89/50 68/84/50
f 31/59/51 33/18/51 96/90/51 95/85/51
f 11/21/52 12/41/52 76/91/52 75/86/52
f 18/63/53 19/26/53 83/92/53 82/87/53
f 25/37/54 26/51/54 90/93/54 89/88/54
f 5/2/55 6/1/55 70/94/55 69/89/55
f 33/18/56 1/17/56 65/95/56 96/90/56
f 12/41/57 13/55/57 77/96/57 76/91/57
f 19/26/58 20/25/58 84/97/58 83/92/58
f 26/51/59 27/65/59 91/98/59 90/93/59
f 6/1/60 7/33/60 71/99/60 70/94/60
f 13/55/61 14/6/61 78/68/61 77/96/61
f 20/25/62 21/43/62 85/70/62 84/97/62
f 27/65/63 28/30/63 92/74/63 91/98/63
f 7/33/64 8/47/64 72/76/64 71/99/64
f 66/71/65 67/79/65 68/84/65 69/89/65 70/94/65 71/99/65 72/76/65 73/75/65 74/81/65 75/86/65 76/91/65 77/96/65 78/68/65 79/67/65 80/77/65 81/82/65 82/87/65 83/92/65 84/97/65 85/70/65 86/69/65 87/78/65 88/83/65 89/88/65 90/93/65 91/98/65 92/74/65 93/73/65 94/80/65 95/85/65 96/90/65 65/95/65
f 57/12/44 56/11/44 123/100/44 124/101/44
f 40/34/60 39/4/60 107/102/60 108/103/60
f 58/38/49 57/12/49 124/101/49 100/104/49
f 41/48/64 40/34/64 108/103/64 109/105/64
f 60/31/63 59/66/63 125/106/63 126/107/63
f 44/24/47 43/23/47 111/108/47 112/109/47
f 43/23/42 32/62/42 98/110/42 111/108/42
f 61/32/36 60/31/36 126/107/36 102/111/36
f 45/42/52 44/24/52 112/109/52 113/112/52
f 32/62/37 41/48/37 109/105/37 98/110/37
f 62/46/41 61/32/41 102/111/41 127/113/41
f 46/56/57 45/42/57 113/112/57 114/114/57
f 48/52/54 58/38/54 100/104/54 116/115/54
f 63/60/46 62/46/46 127/113/46 128/116/46
f 47/7/61 46/56/61 114/114/61 115/117/61
f 64/19/51 63/60/51 128/116/51 129/118/51
f 50/50/43 49/36/43 117/119/43 99/120/43
f 59/66/59 48/52/59 116/115/59 125/106/59
f 34/20/56 64/19/56 129/118/56 97/121/56
f 51/64/48 50/50/48 99/120/48 118/122/48
f 42/8/33 47/7/33 115/117/33 110/123/33
f 52/27/53 51/64/53 118/122/53 119/124/53
f 49/36/38 42/8/38 110/123/38 117/119/38
f 35/16/35 34/15/35 97/125/35 103/126/35
f 53/28/58 52/27/58 119/124/58 120/127/58
f 36/40/40 35/16/40 103/126/40 104/128/40
f 54/44/62 53/28/62 120/127/62 121/129/62
f 37/54/45 36/40/45 104/128/45 105/130/45
f 55/58/34 54/44/34 121/129/34 122/131/34
f 38/3/50 37/54/50 105/130/50 106/132/50
f 56/11/39 55/58/39 122/131/39 123/100/39
f 39/4/55 38/3/55 106/132/55 107/102/55
f 101/133/66 112/134/66 113/135/66 114/136/66
f 98/137/67 111/138/67 112/134/67 101/133/67
f 99/139/68 101/133/68 110/140/68 117/141/68
f 101/133/69 114/136/69 115/142/69 110/140/69
f 106/143/70 101/133/70 104/144/70 105/145/70
f 101/133/71 97/146/71 103/147/71 104/144/71
f 98/137/72 101/133/72 108/148/72 109/149/72
f 101/133/73 106/143/73 107/150/73 108/148/73
f 101/133/74 99/139/74 118/151/74 119/152/74
f 101/133/75 100/153/75 116/154/75 125/155/75
f 102/156/76 101/133/76 125/155/76 126/157/76
f 101/133/77 102/156/77 127/158/77 128/159/77
f 97/146/78 101/133/78 128/159/78 129/160/78
f 121/161/79 101/133/79 119/152/79 120/162/79
f 101/133/80 121/161/80 122/163/80 123/164/80
f 100/153/81 101/133/81 123/164/81 124/165/81
