# Blender v2.81 (sub 16) OBJ File: ''
# www.blender.org
mtllib Door.mtl
o wallDoor
v -0.022795 0.000000 -0.207156
v -0.022795 0.050585 -0.156572
v -0.022795 0.550000 -0.207156
v -0.022795 -0.000000 0.192844
v -0.022795 0.601764 -0.200341
v -0.022795 0.650000 -0.180361
v -0.022795 0.050585 0.142259
v -0.022795 0.546685 0.142259
v -0.022795 0.650000 0.166049
v -0.022795 0.601764 0.186029
v -0.022795 0.550000 0.192844
v -0.022795 0.546685 -0.156572
v -0.022795 0.691421 -0.148578
v -0.022795 0.588559 -0.151059
v -0.022795 0.624489 -0.136176
v -0.022795 0.723205 -0.107156
v -0.022795 0.655344 -0.112500
v -0.022795 0.679019 -0.081646
v -0.022795 0.743185 -0.058920
v -0.022795 0.693902 -0.045715
v -0.022795 0.750000 -0.007156
v -0.022795 0.698979 -0.007156
v -0.022795 0.693902 0.031402
v -0.022795 0.743185 0.044608
v -0.022795 0.679019 0.067333
v -0.022795 0.723205 0.092844
v -0.022795 0.655344 0.098188
v -0.022795 0.691421 0.134265
v -0.022795 0.624489 0.121863
v -0.022795 0.588559 0.136746
v 0.027205 0.000000 -0.207156
v 0.027205 -0.000000 0.192844
v 0.027205 0.550000 0.192844
v 0.027205 0.601764 0.186029
v 0.027205 0.650000 0.166049
v 0.027205 0.691421 0.134265
v 0.027205 0.723205 0.092844
v 0.027205 0.743185 0.044608
v 0.027205 0.750000 -0.007156
v 0.027205 0.743185 -0.058920
v 0.027205 0.723205 -0.107156
v 0.027205 0.691421 -0.148578
v 0.027205 0.650000 -0.180361
v 0.027205 0.601764 -0.200341
v 0.027205 0.550000 -0.207156
v -0.022795 0.491153 0.092363
v -0.022795 0.543414 -0.106676
v -0.022795 0.491153 -0.106676
v -0.022795 0.575533 -0.102448
v -0.022795 0.599326 -0.092592
v -0.022795 0.619758 -0.076914
v -0.022795 0.635436 -0.056483
v -0.022795 0.645291 -0.032689
v -0.022795 0.648653 -0.007156
v -0.022795 0.645291 0.018377
v -0.022795 0.635436 0.042170
v -0.022795 0.619758 0.062602
v -0.022795 0.599326 0.078280
v -0.022795 0.575533 0.088135
v -0.022795 0.543414 0.092363
v -0.022795 0.270869 -0.007156
v -0.022795 0.441257 -0.106676
v -0.022795 0.100480 -0.106676
v -0.022795 0.441257 0.092363
v -0.022795 0.100480 0.092363
v 0.027205 0.575533 -0.102448
v 0.027205 0.491153 -0.106676
v 0.027205 0.543414 -0.106676
v 0.027205 0.491153 0.092363
v 0.027205 0.575533 0.088135
v 0.027205 0.270869 -0.007156
v 0.027205 0.100480 -0.106676
v 0.027205 0.441257 -0.106676
v 0.027205 0.441257 0.092363
v 0.027205 0.100480 0.092363
v 0.027205 0.546685 -0.156572
v 0.027205 0.588559 -0.151059
v 0.027205 0.624489 -0.136176
v 0.027205 0.655344 -0.112500
v 0.027205 0.679019 -0.081646
v 0.027205 0.693902 -0.045715
v 0.027205 0.698979 -0.007156
v 0.027205 0.693902 0.031402
v 0.027205 0.679019 0.067333
v 0.027205 0.655344 0.098188
v 0.027205 0.624489 0.121863
v 0.027205 0.588559 0.136746
v 0.027205 0.546685 0.142259
v 0.027205 0.050585 0.142259
v 0.027205 0.050585 -0.156572
vt 0.000000 0.000000
vt 1.991526 1.991526
vt 0.000000 21.653540
vt 15.748030 0.000000
vt 0.268301 23.691492
vt 1.054918 25.590549
vt 13.756510 1.991526
vt 13.756510 21.523008
vt 14.693110 25.590551
vt 15.479729 23.691490
vt 15.748030 21.653540
vt 1.991526 21.523010
vt 2.306246 27.221313
vt 2.208566 23.171600
vt 2.794513 24.586187
vt 3.937008 28.472637
vt 3.726619 25.800938
vt 4.941362 26.733047
vt 5.836071 29.259258
vt 6.355964 27.318993
vt 7.874017 29.527561
vt 7.874015 27.518848
vt 9.392069 27.318991
vt 9.911961 29.259262
vt 10.806670 26.733049
vt 11.811020 28.472637
vt 12.021410 25.800941
vt 13.441790 27.221310
vt 12.953519 24.586187
vt 13.539461 23.171602
vt -0.984252 15.748030
vt 0.984252 0.000000
vt 0.984252 15.748030
vt -0.984252 0.000000
vt 0.984252 21.653538
vt -0.984252 0.000000
vt 0.984252 0.000000
vt -0.984252 21.653540
vt 0.984252 21.468290
vt -0.984252 19.412760
vt 0.984252 19.412758
vt -0.984252 21.468288
vt 0.984252 18.019779
vt -0.984252 15.964239
vt 0.984252 15.964240
vt -0.984252 18.019779
vt 0.984252 13.413280
vt -0.984252 11.357750
vt 0.984252 11.357750
vt -0.984252 13.413280
vt -0.984252 7.962730
vt 0.984252 5.907200
vt 0.984252 7.962730
vt -0.984252 5.907200
vt -0.984252 2.039576
vt 0.984252 -0.015955
vt 0.984252 2.039576
vt -0.984252 -0.015955
vt -0.984252 -3.952533
vt 0.984252 -6.008063
vt 0.984252 -3.952533
vt -0.984252 -6.008063
vt 0.984252 9.605243
vt -0.984252 11.660771
vt -0.984252 9.605242
vt 0.984252 11.660770
vt 0.984252 14.533329
vt -0.984252 16.588860
vt -0.984252 14.533330
vt 0.984252 16.588860
vt 0.984252 18.400949
vt -0.984252 20.456480
vt -0.984252 18.400949
vt 0.984252 20.456480
vt 0.984252 23.000071
vt -0.984252 20.944540
vt 0.984252 20.944540
vt -0.984252 23.000071
vt 0.984252 24.046289
vt -0.984252 21.990761
vt 0.984252 21.990761
vt -0.984252 24.046289
vt 0.984252 23.523821
vt -0.984252 21.468288
vt 0.984252 21.468290
vt -0.984252 23.523821
vt 0.984252 21.653538
vt -0.984252 0.000000
vt 0.984252 0.000000
vt -0.984252 21.653540
vt 11.792121 19.336721
vt 3.955914 21.394258
vt 3.955914 19.336720
vt 4.122392 22.658789
vt 4.510402 23.595528
vt 5.127637 24.399920
vt 5.932033 25.017159
vt 6.868771 25.405167
vt 7.874016 25.537510
vt 8.879261 25.405174
vt 9.815998 25.017159
vt 10.620390 24.399918
vt 11.237630 23.595530
vt 11.625639 22.658789
vt 11.792120 21.394260
vt 7.874016 10.664120
vt 3.955914 17.372330
vt 3.955914 3.955914
vt 11.792120 17.372330
vt 11.792122 3.955914
vt -4.122392 22.658791
vt -3.955914 19.336721
vt -3.955914 21.394260
vt -11.625640 22.658791
vt -11.792119 19.336718
vt -7.874016 10.664120
vt -3.955914 3.955914
vt -3.955914 17.372332
vt -11.792120 17.372330
vt -11.792120 3.955914
vt -2.306246 27.221313
vt -1.991526 21.523010
vt -1.054918 25.590549
vt -2.208566 23.171598
vt -2.794513 24.586191
vt -3.937008 28.472637
vt -3.726619 25.800941
vt -4.941362 26.733047
vt -5.836071 29.259258
vt -6.355963 27.318987
vt -7.874016 29.527557
vt -7.874015 27.518848
vt -9.911960 29.259258
vt -9.392069 27.318989
vt -10.806670 26.733049
vt -11.811020 28.472637
vt -12.021410 25.800940
vt -13.441790 27.221310
vt -12.953519 24.586189
vt -13.539460 23.171600
vt -14.693111 25.590553
vt -13.756509 21.523008
vt -13.756510 1.991526
vt -15.748028 0.000000
vt -1.991526 1.991526
vt 0.000000 0.000000
vt -0.268301 23.691490
vt 0.000000 21.653540
vt -15.479729 23.691490
vt -15.748030 21.653540
vn -1.0000 -0.0000 0.0000
vn 0.0000 -1.0000 -0.0000
vn 0.0000 -0.0000 1.0000
vn 0.0000 0.2588 0.9659
vn 0.0000 0.1305 0.9914
vn 0.0000 0.5000 0.8660
vn 0.0000 0.7071 0.7071
vn 0.0000 0.8660 0.5000
vn 0.0000 0.9659 0.2588
vn 0.0000 1.0000 0.0000
vn 0.0000 0.9659 -0.2588
vn 0.0000 0.8660 -0.5000
vn 0.0000 0.7071 -0.7071
vn 0.0000 0.5000 -0.8660
vn 0.0000 0.2588 -0.9659
vn 0.0000 0.1305 -0.9914
vn 0.0000 0.0000 -1.0000
vn -1.0000 0.0003 0.0001
vn 1.0000 -0.0000 0.0000
vn 0.8170 -0.5767 0.0000
vn 0.5088 -0.1176 -0.8528
usemtl wood
s 1
f 1/1/1 2/2/1 3/3/1
f 2/2/1 1/1/1 4/4/1
f 3/3/1 2/2/1 5/5/1
f 5/5/1 2/2/1 6/6/1
f 2/2/1 4/4/1 7/7/1
f 7/7/1 4/4/1 8/8/1
f 8/8/1 4/4/1 9/9/1
f 9/9/1 4/4/1 10/10/1
f 10/10/1 4/4/1 11/11/1
f 12/12/1 6/6/1 2/2/1
f 6/6/1 12/12/1 13/13/1
f 13/13/1 12/12/1 14/14/1
f 13/13/1 14/14/1 15/15/1
f 13/13/1 15/15/1 16/16/1
f 16/16/1 15/15/1 17/17/1
f 16/16/1 17/17/1 18/18/1
f 16/16/1 18/18/1 19/19/1
f 19/19/1 18/18/1 20/20/1
f 19/19/1 20/20/1 21/21/1
f 21/21/1 20/20/1 22/22/1
f 21/21/1 22/22/1 23/23/1
f 21/21/1 23/23/1 24/24/1
f 24/24/1 23/23/1 25/25/1
f 24/24/1 25/25/1 26/26/1
f 26/26/1 25/25/1 27/27/1
f 26/26/1 27/27/1 28/28/1
f 28/28/1 27/27/1 29/29/1
f 28/28/1 29/29/1 30/30/1
f 28/28/1 30/30/1 9/9/1
f 9/9/1 30/30/1 8/8/1
f 4/31/2 31/32/2 32/33/2
f 31/32/2 4/31/2 1/34/2
f 33/35/3 4/36/3 32/37/3
f 4/36/3 33/35/3 11/38/3
f 34/39/4 11/40/5 33/41/5
f 11/40/5 34/39/4 10/42/4
f 35/43/6 10/44/4 34/45/4
f 10/44/4 35/43/6 9/46/6
f 36/47/7 9/48/6 35/49/6
f 9/48/6 36/47/7 28/50/7
f 26/51/8 36/52/7 37/53/8
f 36/52/7 26/51/8 28/54/7
f 24/55/9 37/56/8 38/57/9
f 37/56/8 24/55/9 26/58/8
f 21/59/10 38/60/9 39/61/10
f 38/60/9 21/59/10 24/62/9
f 19/63/11 39/64/10 40/65/11
f 39/64/10 19/63/11 21/66/10
f 16/67/12 40/68/11 41/69/12
f 40/68/11 16/67/12 19/70/11
f 13/71/13 41/72/12 42/73/13
f 41/72/12 13/71/13 16/74/12
f 13/75/13 43/76/14 6/77/14
f 43/76/14 13/75/13 42/78/13
f 6/79/14 44/80/15 5/81/15
f 44/80/15 6/79/14 43/82/14
f 5/83/15 45/84/16 3/85/16
f 45/84/16 5/83/15 44/86/15
f 3/87/17 31/88/17 1/89/17
f 31/88/17 3/87/17 45/90/17
f 46/91/1 47/92/1 48/93/18
f 47/92/1 46/91/1 49/94/1
f 49/94/1 46/91/1 50/95/1
f 50/95/1 46/91/1 51/96/1
f 51/96/1 46/91/1 52/97/1
f 52/97/1 46/91/1 53/98/1
f 53/98/1 46/91/1 54/99/1
f 54/99/1 46/91/1 55/100/1
f 55/100/1 46/91/1 56/101/1
f 56/101/1 46/91/1 57/102/1
f 57/102/1 46/91/1 58/103/1
f 58/103/1 46/91/1 59/104/1
f 59/104/1 46/91/1 60/105/1
f 61/106/1 62/107/1 63/108/1
f 64/109/1 61/106/1 65/110/1
f 66/111/19 67/112/20 68/113/19
f 66/111/19 70/114/19 69/115/19 67/112/20
f 71/116/19 72/117/19 73/118/21
f 74/119/19 75/120/19 71/116/19
f 42/121/19 76/122/19 43/123/19
f 76/122/19 42/121/19 77/124/19
f 77/124/19 42/121/19 78/125/19
f 78/125/19 42/121/19 41/126/19
f 78/125/19 41/126/19 79/127/19
f 79/127/19 41/126/19 80/128/19
f 80/128/19 41/126/19 40/129/19
f 80/128/19 40/129/19 81/130/19
f 81/130/19 40/129/19 39/131/19
f 81/130/19 39/131/19 82/132/19
f 82/132/19 39/131/19 38/133/19
f 82/132/19 38/133/19 83/134/19
f 83/134/19 38/133/19 84/135/19
f 84/135/19 38/133/19 37/136/19
f 84/135/19 37/136/19 85/137/19
f 85/137/19 37/136/19 36/138/19
f 85/137/19 36/138/19 86/139/19
f 86/139/19 36/138/19 87/140/19
f 87/140/19 36/138/19 35/141/19
f 87/140/19 35/141/19 88/142/19
f 88/142/19 35/141/19 89/143/19
f 32/144/19 89/143/19 35/141/19
f 32/144/19 90/145/19 89/143/19
f 31/146/19 90/145/19 32/144/19
f 44/147/19 43/123/19 76/122/19 90/145/19 31/146/19
f 44/147/19 31/146/19 45/148/19
f 32/144/19 35/141/19 34/149/19
f 32/144/19 34/149/19 33/150/19
usemtl stone
f 64/109/1 62/107/1 61/106/1
f 65/110/1 61/106/1 63/108/1
f 74/119/19 71/116/19 73/118/21
f 75/120/19 72/117/19 71/116/19
usemtl woodDark
f 69/115/19 74/119/19 73/118/21 67/112/20
f 2/2/1 63/108/1 12/12/1
f 63/108/1 2/2/1 7/7/1
f 12/12/1 63/108/1 14/14/1
f 14/14/1 63/108/1 15/15/1
f 15/15/1 63/108/1 17/17/1
f 63/108/1 7/7/1 65/110/1
f 46/91/1 64/109/1 65/110/1 7/7/1 30/30/1 29/29/1 27/27/1 60/105/1
f 30/30/1 7/7/1 8/8/1
f 47/92/1 17/17/1 63/108/1
f 49/94/1 17/17/1 47/92/1
f 17/17/1 49/94/1 18/18/1
f 18/18/1 49/94/1 50/95/1
f 18/18/1 50/95/1 51/96/1
f 18/18/1 51/96/1 20/20/1
f 20/20/1 51/96/1 52/97/1
f 20/20/1 52/97/1 53/98/1
f 20/20/1 53/98/1 22/22/1
f 22/22/1 53/98/1 54/99/1
f 22/22/1 54/99/1 55/100/1
f 22/22/1 55/100/1 23/23/1
f 23/23/1 55/100/1 56/101/1
f 23/23/1 56/101/1 25/25/1
f 25/25/1 56/101/1 57/102/1
f 25/25/1 57/102/1 58/103/1
f 25/25/1 58/103/1 27/27/1
f 27/27/1 58/103/1 59/104/1
f 27/27/1 59/104/1 60/105/1
f 47/92/1 63/108/1 62/107/1
f 47/92/1 62/107/1 48/93/18
f 64/109/1 48/93/18 62/107/1
f 48/93/18 64/109/1 46/91/1
f 79/127/19 80/128/19 81/130/19 82/132/19 83/134/19 84/135/19 85/137/19 86/139/19 89/143/19 74/119/19 69/115/19 70/114/19 66/111/19 68/113/19 72/117/19 90/145/19 77/124/19 78/125/19
f 89/143/19 75/120/19 74/119/19
f 89/143/19 72/117/19 75/120/19
f 90/145/19 72/117/19 89/143/19
f 77/124/19 90/145/19 76/122/19
f 72/117/19 68/113/19 67/112/20
f 72/117/19 67/112/20 73/118/21
f 89/143/19 86/139/19 87/140/19
f 89/143/19 87/140/19 88/142/19
