# Blender v2.81 (sub 16) OBJ File: ''
# www.blender.org
mtllib pole.mtl
o poles
v -0.049899 1.000000 -0.049797
v -0.037399 -0.000000 -0.049797
v -0.049899 -0.000000 -0.049797
v 0.050101 -0.000000 -0.049797
v 0.050101 1.000000 -0.049797
v 0.050101 1.000000 0.050203
v 0.050101 -0.000000 0.050203
v -0.049899 -0.000000 0.050203
v -0.049899 1.000000 0.050203
vt -15.748030 39.370079
vt -16.240160 0.000000
vt -15.748030 0.000000
vt -19.685040 0.000000
vt -19.685040 39.370079
vt -19.685040 39.370079
vt -15.748030 0.000000
vt -15.748030 39.370079
vt -19.685040 0.000000
vt 15.748030 19.685040
vt 19.685040 15.748030
vt 19.685040 19.685040
vt 16.240160 15.748030
vt 15.748030 15.748030
vt -15.748030 15.748030
vt -19.685040 19.685040
vt -19.685040 15.748030
vt -15.748030 19.685040
vt 19.685040 0.000000
vt 15.748030 39.370079
vt 15.748030 0.000000
vt 19.685040 39.370079
vt 19.685040 39.370079
vt 15.748030 0.000000
vt 19.685040 0.000000
vt 15.748030 39.370079
vn 0.0000 0.0000 -1.0000
vn 1.0000 0.0000 0.0000
vn 0.0000 -1.0000 -0.0000
vn 0.0000 1.0000 0.0000
vn -1.0000 0.0000 0.0000
vn 0.0000 -0.0000 1.0000
usemtl wood
s 1
f 1/1/1 2/2/1 3/3/1
f 2/2/1 1/1/1 4/4/1
f 4/4/1 1/1/1 5/5/1
f 6/6/2 4/7/2 5/8/2
f 4/7/2 6/6/2 7/9/2
f 8/10/3 4/11/3 7/12/3
f 4/11/3 8/10/3 2/13/3
f 2/13/3 8/10/3 3/14/3
f 1/15/4 6/16/4 5/17/4
f 6/16/4 1/15/4 9/18/4
f 8/19/5 1/20/5 3/21/5
f 1/20/5 8/19/5 9/22/5
f 6/23/6 8/24/6 7/25/6
f 8/24/6 6/23/6 9/26/6
